<svg width="24" height="24" viewBox="0 0 24 24" fill="none" xmlns="http://www.w3.org/2000/svg">
<path d="M21.6 23L18.525 19.95C18.225 20.1333 17.9043 20.271 17.563 20.363C17.2217 20.455 16.8673 20.5007 16.5 20.5C15.4 20.5 14.4583 20.1083 13.675 19.325C12.8917 18.5417 12.5 17.6 12.5 16.5C12.5 15.4 12.8917 14.4583 13.675 13.675C14.4583 12.8917 15.4 12.5 16.5 12.5C17.6 12.5 18.5417 12.8917 19.325 13.675C20.1083 14.4583 20.5 15.4 20.5 16.5C20.5 16.8833 20.45 17.246 20.35 17.588C20.25 17.93 20.1083 18.2507 19.925 18.55L23 21.6L21.6 23ZM5.5 20.5C4.4 20.5 3.45833 20.1083 2.675 19.325C1.89167 18.5417 1.5 17.6 1.5 16.5C1.5 15.4 1.89167 14.4583 2.675 13.675C3.45833 12.8917 4.4 12.5 5.5 12.5C6.6 12.5 7.54167 12.8917 8.325 13.675C9.10833 14.4583 9.5 15.4 9.5 16.5C9.5 17.6 9.10833 18.5417 8.325 19.325C7.54167 20.1083 6.6 20.5 5.5 20.5ZM5.5 18.5C6.05 18.5 6.52067 18.3043 6.912 17.913C7.30333 17.5217 7.49933 17.0507 7.5 16.5C7.50067 15.9493 7.305 15.4787 6.913 15.088C6.521 14.6973 6.05 14.5013 5.5 14.5C4.95 14.4987 4.47933 14.6947 4.088 15.088C3.69667 15.4813 3.50067 15.952 3.5 16.5C3.49933 17.048 3.69533 17.519 4.088 17.913C4.48067 18.307 4.95133 18.5027 5.5 18.5ZM16.5 18.5C17.05 18.5 17.521 18.3043 17.913 17.913C18.305 17.5217 18.5007 17.0507 18.5 16.5C18.4993 15.9493 18.3037 15.4787 17.913 15.088C17.5223 14.6973 17.0513 14.5013 16.5 14.5C15.9487 14.4987 15.478 14.6947 15.088 15.088C14.698 15.4813 14.502 15.952 14.5 16.5C14.498 17.048 14.694 17.519 15.088 17.913C15.482 18.307 15.9527 18.5027 16.5 18.5ZM5.5 9.5C4.4 9.5 3.45833 9.10833 2.675 8.325C1.89167 7.54167 1.5 6.6 1.5 5.5C1.5 4.4 1.89167 3.45833 2.675 2.675C3.45833 1.89167 4.4 1.5 5.5 1.5C6.6 1.5 7.54167 1.89167 8.325 2.675C9.10833 3.45833 9.5 4.4 9.5 5.5C9.5 6.6 9.10833 7.54167 8.325 8.325C7.54167 9.10833 6.6 9.5 5.5 9.5ZM16.5 9.5C15.4 9.5 14.4583 9.10833 13.675 8.325C12.8917 7.54167 12.5 6.6 12.5 5.5C12.5 4.4 12.8917 3.45833 13.675 2.675C14.4583 1.89167 15.4 1.5 16.5 1.5C17.6 1.5 18.5417 1.89167 19.325 2.675C20.1083 3.45833 20.5 4.4 20.5 5.5C20.5 6.6 20.1083 7.54167 19.325 8.325C18.5417 9.10833 17.6 9.5 16.5 9.5ZM5.5 7.5C6.05 7.5 6.521 7.30433 6.913 6.913C7.305 6.52167 7.50067 6.05067 7.5 5.5C7.49933 4.94933 7.30367 4.47867 6.913 4.088C6.52233 3.69733 6.05133 3.50133 5.5 3.5C4.94867 3.49867 4.478 3.69467 4.088 4.088C3.698 4.48133 3.502 4.952 3.5 5.5C3.498 6.048 3.694 6.519 4.088 6.913C4.482 7.307 4.95267 7.50267 5.5 7.5ZM16.5 7.5C17.05 7.5 17.521 7.30433 17.913 6.913C18.305 6.52167 18.5007 6.05067 18.5 5.5C18.4993 4.94933 18.3037 4.47867 17.913 4.088C17.5223 3.69733 17.0513 3.50133 16.5 3.5C15.9487 3.49867 15.478 3.69467 15.088 4.088C14.698 4.48133 14.502 4.952 14.5 5.5C14.498 6.048 14.694 6.519 15.088 6.913C15.482 7.307 15.9527 7.50267 16.5 7.5Z" fill="#484C52"/>
</svg>
