<svg width="23" height="20" viewBox="0 0 23 20" fill="none" xmlns="http://www.w3.org/2000/svg">
<path d="M9 13.5L12 14.5C12 14.5 19.5 13 20.5 13C21.5 13 21.5 14 20.5 15C19.5 16 16 19 13 19C10 19 8 17.5 6 17.5H1" stroke="#484C52" stroke-width="2" stroke-linecap="round" stroke-linejoin="round"/>
<path d="M1 11.5C2 10.5 4 9 6 9C8 9 12.75 11 13.5 12C14.25 13 12 14.5 12 14.5M7 6V2C7 1.73478 7.10536 1.48043 7.29289 1.29289C7.48043 1.10536 7.73478 1 8 1H20C20.2652 1 20.5196 1.10536 20.7071 1.29289C20.8946 1.48043 21 1.73478 21 2V10" stroke="#484C52" stroke-width="2" stroke-linecap="round" stroke-linejoin="round"/>
<path d="M11.5 1H16.5V5.5H11.5V1Z" stroke="#484C52" stroke-width="2" stroke-linecap="round" stroke-linejoin="round"/>
</svg>
