<svg width="32" height="31" viewBox="0 0 32 31" fill="none" xmlns="http://www.w3.org/2000/svg">
<path d="M10.24 16.899C9.71 16.2297 8.705 16.092 8 16.5952C7.295 17.0984 7.15 18.0525 7.68 18.7218L9.585 21.1333C9.825 21.4371 9.79 21.8596 9.51 22.1254L8.87 22.733C8.535 23.0511 7.99 23.0274 7.69 22.6808L3.2 17.5636V10.519C3.2 9.67882 2.485 9 1.6 9C0.715 9 0 9.67882 0 10.519V20.8865C0 21.4039 0.185 21.9071 0.525 22.3106L5.73 28.6858C5.98 28.9943 6.15 29.3456 6.25 29.7159C6.34 30.0434 6.655 30.2665 7.015 30.2665H13.6C14.04 30.2665 14.4 29.9247 14.4 29.507V24.1904C14.4 22.8755 13.95 21.5985 13.12 20.5447L10.24 16.899ZM30.4 9C29.515 9 28.8 9.67882 28.8 10.519V17.5636L24.31 22.6808C24.01 23.0226 23.46 23.0463 23.13 22.733L22.49 22.1254C22.21 21.8596 22.175 21.4371 22.415 21.1333L24.32 18.7218C24.85 18.0525 24.705 17.0984 24 16.5952C23.295 16.092 22.29 16.2297 21.76 16.899L18.88 20.5447C18.05 21.5985 17.6 22.8755 17.6 24.1904V29.507C17.6 29.9247 17.96 30.2665 18.4 30.2665H24.985C25.34 30.2665 25.66 30.0434 25.75 29.7159C25.85 29.3456 26.02 28.9943 26.27 28.6858L31.475 22.3106C31.815 21.9071 32 21.4039 32 20.8865V10.519C32 9.67882 31.285 9 30.4 9Z" fill="#8900FE"/>
<path d="M7.58325 6.85269C7.58325 10.4999 10.7658 12.4432 13.0948 14.1832C13.9166 14.7967 14.7083 15.3749 15.4999 15.3749C16.2916 15.3749 17.0833 14.7974 17.905 14.1824C20.2349 12.4439 23.4166 10.4999 23.4166 6.85344C23.4166 3.20619 19.0624 0.619442 15.4999 4.12644C11.9374 0.618692 7.58325 3.20544 7.58325 6.85269Z" fill="#FFDE59"/>
</svg>
