<svg width="39" height="34" viewBox="0 0 39 34" fill="none" xmlns="http://www.w3.org/2000/svg">
<path d="M3.80327 4.14812L1.66314 4.34887C1.58596 4.35678 1.51771 4.40043 1.49211 4.46678C1.46652 4.53312 1.49211 4.60221 1.54899 4.64587C2.18517 5.13709 3.14108 5.87271 3.14108 5.87271C3.14027 5.87271 2.87864 6.94281 2.70477 7.65678C2.69648 7.68909 2.69948 7.72275 2.71339 7.75365C2.72731 7.78455 2.75154 7.81136 2.78314 7.83081C2.81474 7.85026 2.85235 7.86152 2.89137 7.86321C2.9304 7.8649 2.96917 7.85696 3.00296 7.84034C3.75208 7.48009 4.87414 6.93834 4.87414 6.93834L6.74452 7.84068C6.81277 7.87231 6.89808 7.87162 6.9643 7.83071C6.9958 7.81127 7.02003 7.78455 7.03407 7.75377C7.04812 7.72299 7.0514 7.68944 7.04352 7.65712L6.60842 5.87271L8.20052 4.6469C8.22935 4.62471 8.25001 4.59595 8.26002 4.56408C8.27004 4.53221 8.26898 4.49857 8.25697 4.46719C8.24497 4.43581 8.22253 4.40803 8.19234 4.38716C8.16216 4.3663 8.1255 4.35324 8.08677 4.34956C7.23039 4.26843 5.94624 4.14812 5.94624 4.14812L5.05939 2.48781C5.04331 2.45778 5.01734 2.43231 4.98459 2.41445C4.95185 2.39659 4.91371 2.38708 4.87475 2.38708C4.83579 2.38708 4.79766 2.39659 4.76491 2.41445C4.73216 2.43231 4.70619 2.45778 4.69011 2.48781L3.80327 4.14812Z" fill="#FFDE59"/>
<path d="M4.56387 27.8778L1.99572 28.1187C1.9031 28.1282 1.8212 28.1805 1.79049 28.2602C1.75977 28.3398 1.79049 28.4227 1.85874 28.4751C2.62216 29.0645 3.76925 29.9473 3.76925 29.9473C3.76827 29.9473 3.45432 31.2314 3.24567 32.0882C3.23573 32.1269 3.23932 32.1673 3.25602 32.2044C3.27272 32.2415 3.3018 32.2737 3.33972 32.297C3.37764 32.3203 3.42277 32.3338 3.4696 32.3359C3.51643 32.3379 3.56296 32.3284 3.6035 32.3084C4.50245 31.8761 5.84892 31.226 5.84892 31.226L8.09337 32.3088C8.17527 32.3468 8.27765 32.346 8.35711 32.2969C8.39492 32.2735 8.42398 32.2415 8.44084 32.2046C8.4577 32.1676 8.46163 32.1273 8.45217 32.0886L7.93006 29.9473L9.84057 28.4763C9.87517 28.4497 9.89996 28.4152 9.91198 28.3769C9.924 28.3387 9.92273 28.2983 9.90832 28.2607C9.89392 28.223 9.86699 28.1897 9.83076 28.1646C9.79454 28.1396 9.75055 28.1239 9.70407 28.1195C8.67642 28.0221 7.13544 27.8778 7.13544 27.8778L6.07122 25.8854C6.05192 25.8494 6.02076 25.8188 5.98147 25.7974C5.94217 25.7759 5.89641 25.7645 5.84965 25.7645C5.8029 25.7645 5.75714 25.7759 5.71784 25.7974C5.67855 25.8188 5.64739 25.8494 5.62809 25.8854L4.56387 27.8778Z" fill="#FFDE59"/>
<path d="M33.0533 22.298L30.9131 22.4988C30.836 22.5067 30.7677 22.5503 30.7421 22.6167C30.7165 22.683 30.7421 22.7521 30.799 22.7958C31.4352 23.287 32.3911 24.0226 32.3911 24.0226C32.3903 24.0226 32.1286 25.0927 31.9548 25.8067C31.9465 25.839 31.9495 25.8726 31.9634 25.9035C31.9773 25.9344 32.0015 25.9613 32.0331 25.9807C32.0647 26.0002 32.1023 26.0114 32.1414 26.0131C32.1804 26.0148 32.2192 26.0069 32.253 25.9902C33.0021 25.63 34.1241 25.0882 34.1241 25.0882L35.9945 25.9906C36.0628 26.0222 36.1481 26.0215 36.2143 25.9806C36.2458 25.9612 36.27 25.9345 36.2841 25.9037C36.2981 25.8729 36.3014 25.8393 36.2935 25.807L35.8584 24.0226L37.4505 22.7968C37.4794 22.7746 37.5 22.7459 37.51 22.714C37.52 22.6821 37.519 22.6485 37.507 22.6171C37.495 22.5857 37.4725 22.5579 37.4423 22.5371C37.4122 22.5162 37.3755 22.5031 37.3368 22.4995C36.4804 22.4183 35.1962 22.298 35.1962 22.298L34.3094 20.6377C34.2933 20.6077 34.2673 20.5822 34.2346 20.5644C34.2018 20.5465 34.1637 20.537 34.1248 20.537C34.0858 20.537 34.0477 20.5465 34.0149 20.5644C33.9822 20.5822 33.9562 20.6077 33.9401 20.6377L33.0533 22.298Z" fill="#FFDE59"/>
<path d="M12.128 23H9.728V9.8H18.728C19.64 9.8 20.488 9.976 21.272 10.328C22.072 10.664 22.768 11.136 23.36 11.744C23.968 12.352 24.44 13.056 24.776 13.856C25.112 14.64 25.28 15.488 25.28 16.4V23H22.88V16.4C22.88 15.632 22.696 14.936 22.328 14.312C21.96 13.672 21.456 13.16 20.816 12.776C20.192 12.392 19.496 12.2 18.728 12.2H12.128V23Z" fill="#8900FE"/>
</svg>
