<svg width="39" height="33" viewBox="0 0 39 33" fill="none" xmlns="http://www.w3.org/2000/svg">
<path d="M3.80327 3.14812L1.66314 3.34887C1.58596 3.35678 1.51771 3.40043 1.49211 3.46678C1.46652 3.53312 1.49211 3.60221 1.54899 3.64587C2.18517 4.13709 3.14108 4.87271 3.14108 4.87271C3.14027 4.87271 2.87864 5.94281 2.70477 6.65678C2.69648 6.68909 2.69948 6.72275 2.71339 6.75365C2.72731 6.78455 2.75154 6.81136 2.78314 6.83081C2.81474 6.85026 2.85235 6.86152 2.89137 6.86321C2.9304 6.8649 2.96917 6.85696 3.00296 6.84034C3.75208 6.48009 4.87414 5.93834 4.87414 5.93834L6.74452 6.84068C6.81277 6.87231 6.89808 6.87162 6.9643 6.83071C6.9958 6.81127 7.02003 6.78455 7.03407 6.75377C7.04812 6.72299 7.0514 6.68944 7.04352 6.65712L6.60842 4.87271L8.20052 3.6469C8.22935 3.62471 8.25001 3.59595 8.26002 3.56408C8.27004 3.53221 8.26898 3.49857 8.25697 3.46719C8.24497 3.43581 8.22253 3.40803 8.19234 3.38716C8.16216 3.3663 8.1255 3.35324 8.08677 3.34956C7.23039 3.26843 5.94624 3.14812 5.94624 3.14812L5.05939 1.48781C5.04331 1.45778 5.01734 1.43231 4.98459 1.41445C4.95185 1.39659 4.91371 1.38708 4.87475 1.38708C4.83579 1.38708 4.79766 1.39659 4.76491 1.41445C4.73216 1.43231 4.70619 1.45778 4.69011 1.48781L3.80327 3.14812Z" fill="#FFDE59"/>
<path d="M4.56387 26.8778L1.99572 27.1187C1.9031 27.1282 1.8212 27.1805 1.79049 27.2602C1.75977 27.3398 1.79049 27.4227 1.85874 27.4751C2.62216 28.0645 3.76925 28.9473 3.76925 28.9473C3.76827 28.9473 3.45432 30.2314 3.24567 31.0882C3.23573 31.1269 3.23932 31.1673 3.25602 31.2044C3.27272 31.2415 3.3018 31.2737 3.33972 31.297C3.37764 31.3203 3.42277 31.3338 3.4696 31.3359C3.51643 31.3379 3.56296 31.3284 3.6035 31.3084C4.50245 30.8761 5.84892 30.226 5.84892 30.226L8.09337 31.3088C8.17527 31.3468 8.27765 31.346 8.35711 31.2969C8.39492 31.2735 8.42398 31.2415 8.44084 31.2046C8.4577 31.1676 8.46163 31.1273 8.45217 31.0886L7.93006 28.9473L9.84057 27.4763C9.87517 27.4497 9.89996 27.4152 9.91198 27.3769C9.924 27.3387 9.92273 27.2983 9.90832 27.2607C9.89392 27.223 9.86699 27.1897 9.83076 27.1646C9.79454 27.1396 9.75055 27.1239 9.70407 27.1195C8.67642 27.0221 7.13544 26.8778 7.13544 26.8778L6.07122 24.8854C6.05192 24.8494 6.02076 24.8188 5.98147 24.7974C5.94217 24.7759 5.89641 24.7645 5.84965 24.7645C5.8029 24.7645 5.75714 24.7759 5.71784 24.7974C5.67855 24.8188 5.64739 24.8494 5.62809 24.8854L4.56387 26.8778Z" fill="#FFDE59"/>
<path d="M33.0533 21.298L30.9131 21.4988C30.836 21.5067 30.7677 21.5503 30.7421 21.6167C30.7165 21.683 30.7421 21.7521 30.799 21.7958C31.4352 22.287 32.3911 23.0226 32.3911 23.0226C32.3903 23.0226 32.1286 24.0927 31.9548 24.8067C31.9465 24.839 31.9495 24.8726 31.9634 24.9035C31.9773 24.9344 32.0015 24.9613 32.0331 24.9807C32.0647 25.0002 32.1023 25.0114 32.1414 25.0131C32.1804 25.0148 32.2192 25.0069 32.253 24.9902C33.0021 24.63 34.1241 24.0882 34.1241 24.0882L35.9945 24.9906C36.0628 25.0222 36.1481 25.0215 36.2143 24.9806C36.2458 24.9612 36.27 24.9345 36.2841 24.9037C36.2981 24.8729 36.3014 24.8393 36.2935 24.807L35.8584 23.0226L37.4505 21.7968C37.4794 21.7746 37.5 21.7459 37.51 21.714C37.52 21.6821 37.519 21.6485 37.507 21.6171C37.495 21.5857 37.4725 21.5579 37.4423 21.5371C37.4122 21.5162 37.3755 21.5031 37.3368 21.4995C36.4804 21.4183 35.1962 21.298 35.1962 21.298L34.3094 19.6377C34.2933 19.6077 34.2673 19.5822 34.2346 19.5644C34.2018 19.5465 34.1637 19.537 34.1248 19.537C34.0858 19.537 34.0477 19.5465 34.0149 19.5644C33.9822 19.5822 33.9562 19.6077 33.9401 19.6377L33.0533 21.298Z" fill="#FFDE59"/>
</svg>
