<svg width="50" height="50" viewBox="0 0 50 50" fill="none" xmlns="http://www.w3.org/2000/svg">
<path d="M4.40183 38.9451C3.41783 39.0777 2.48408 39.2296 1.62258 39.4032C1.52108 39.4237 1.42183 39.4639 1.32633 39.5053C1.26258 39.5329 1.24233 39.5822 1.25208 39.6305C1.28333 39.7879 2.62233 39.5687 4.68158 39.307C4.58283 39.199 4.48908 39.078 4.40183 38.9451Z" fill="black"/>
<path d="M48.5417 38.9298C48.4165 38.9187 44.5522 38.6504 38.9927 38.411C38.9805 38.5572 38.9665 38.6961 38.9492 38.8282C43.042 38.9984 46.4282 39.1678 48.564 39.2139C48.8322 39.2195 48.7965 38.9525 48.5417 38.9298Z" fill="black"/>
<path d="M21.673 12.3509C21.8483 12.3583 23.848 10.028 24.4535 9.20563C24.6783 8.90013 24.6625 8.76426 24.3165 9.07692C23.5273 9.79002 21.2193 12.3317 21.673 12.3509Z" fill="black"/>
<path d="M7.73794 10.9125C7.65344 10.8891 7.56069 10.9712 7.64069 11.0496C7.64594 11.0548 10.9192 13.9042 11.1447 13.8968C11.7914 13.8759 7.80569 10.9313 7.73794 10.9125Z" fill="black"/>
<path d="M15.0786 7.72501C15.0799 8.33109 15.3034 10.5567 15.5094 11.5681C15.5816 11.9232 15.7971 11.8971 15.7971 11.6342C15.8246 11.6322 15.4984 8.84249 15.2861 7.86457C15.1899 7.42147 15.0781 7.45895 15.0786 7.72501Z" fill="black"/>
<path d="M9.33807 19.1055C7.94382 18.8456 7.04307 18.725 6.60032 18.7016C6.15057 18.6776 6.15707 18.8517 6.61582 18.9832C7.08332 19.117 8.02007 19.21 9.35382 19.4112C9.92557 19.4975 10.0251 19.2337 9.33807 19.1055Z" fill="black"/>
<path d="M47.8507 35.6509C47.8394 34.4861 47.2057 33.0944 46.9389 32.6814C46.8799 32.5902 46.3119 31.7198 46.1749 31.5888C45.9754 31.3982 46.2462 31.1896 46.0534 30.8979C45.9479 30.7382 46.1679 30.698 46.1494 30.4036C46.1259 30.03 45.8364 30.1316 45.8877 30.0043C45.9797 29.7753 46.0604 29.7948 46.5567 29.025C46.7164 28.7771 46.8392 28.5604 46.6437 28.3843C46.0799 27.8767 46.0502 28.1654 45.9969 28.0014C45.7647 27.2863 45.1104 27.0486 44.6274 27.3268C44.5617 27.3648 44.5547 27.3068 44.5089 27.2139C44.3459 26.8812 43.9954 26.6006 43.5952 26.5979C43.1949 26.5952 43.1544 26.8203 43.0722 26.6938C42.6144 25.9889 41.4437 26.1901 41.3092 27.1677C41.2934 27.2829 41.2672 27.2518 40.9279 27.3275C40.5079 27.421 40.2227 27.4264 40.3194 27.7156C40.4829 28.2048 40.6639 28.7229 40.9104 29.1443C40.9662 29.2395 40.8429 29.217 40.7532 29.3549C40.5702 29.6357 40.8159 29.7383 40.6752 29.7896C40.3217 29.9183 40.4599 30.1414 40.3629 30.1792C40.3587 30.1809 39.9717 30.3668 39.4179 30.7024C39.3702 33.1193 39.2597 35.2616 39.1067 36.8964C39.0124 37.9022 39.0127 38.684 38.8672 39.2891C38.9904 39.3713 39.1144 39.4457 39.2377 39.5118C40.3709 40.1181 41.8157 40.3603 43.1049 40.3622C44.8514 40.3649 45.7992 40.1497 47.0279 38.7487C47.5239 38.183 47.7449 37.3377 47.8277 36.5842C47.9009 35.9165 47.8562 36.2469 47.8504 35.6504L47.8507 35.6509ZM45.5197 27.6962C45.8272 28.0241 45.8019 28.3663 45.8272 28.5954C45.8402 28.7128 45.7417 28.7022 45.4304 28.7572C44.9982 28.7259 44.7904 28.6149 44.3827 28.3659C44.3209 28.3284 44.3009 28.3094 44.3259 28.2152C44.4877 27.6034 45.1187 27.2688 45.5197 27.6962ZM43.0352 27.4119C43.0849 27.1939 43.2172 27.0395 43.4179 26.9441C43.9414 26.6958 44.2669 27.3569 44.3424 27.4673C44.4099 27.5662 44.2137 27.5968 44.0749 28.0517C44.0552 28.1166 44.0022 28.0927 43.8599 27.9888C43.1612 27.4799 42.9932 27.5956 43.0352 27.4119ZM41.6557 27.0516C42.0684 26.0954 43.0182 26.8211 42.8962 26.9799C42.7314 27.1941 42.7757 27.4183 42.6402 27.3749C41.8487 27.1211 41.5077 27.3948 41.6557 27.0516ZM43.2199 37.9566C43.0772 37.9579 43.2172 38.109 43.0144 38.4483C42.9194 38.6076 42.7072 38.6039 42.6194 38.4417C42.5632 38.3379 42.5159 38.2296 42.5579 38.1071C42.6874 37.7283 42.2582 38.0992 41.5054 37.2902C41.3032 37.0729 41.4802 36.7647 41.7322 36.8675C41.9059 36.9385 42.0439 37.1725 42.5339 37.3641C43.0287 37.5574 43.7937 37.4581 44.1429 37.0613C44.2789 36.907 44.3064 36.5657 44.1727 36.3773C43.6832 35.6877 42.7257 36.0622 42.0402 35.3319C41.2867 34.529 42.0912 33.5139 43.1304 33.3814C43.2462 33.3667 43.1714 33.2988 43.2537 32.928C43.3334 32.5677 43.8687 32.6252 43.8037 33.0187C43.7332 33.4465 43.7442 33.4534 43.8269 33.4838C45.0784 33.9424 44.7682 34.7928 44.4679 34.5332C44.3607 34.4407 44.1854 34.0028 43.5052 33.885C43.0544 33.807 42.6637 33.9313 42.3719 34.2913C42.1882 34.5182 42.1867 34.7376 42.3832 34.9637C42.9434 35.609 44.2042 35.2234 44.6929 36.293C44.7472 36.4119 44.7364 36.4644 44.7364 36.6639C44.7902 37.4467 43.9622 37.9505 43.2199 37.9569V37.9566ZM40.9792 30.6417C40.8342 30.5281 40.6154 30.2845 40.7042 30.1242C40.7727 30.0002 40.7137 30.0665 40.8374 29.9336C41.0169 30.1163 40.9717 30.1614 41.4039 30.4201C42.3087 30.9616 43.2709 31.11 44.3272 31.1783C45.5844 31.2599 45.8139 30.8725 45.8564 31.0045C46.1849 32.0273 42.4254 31.7753 40.9792 30.6417ZM45.5797 30.7564C43.9284 31.2897 40.2264 30.1133 41.0704 29.4153C41.0964 29.3938 41.1147 29.3958 41.1384 29.4168C41.9489 30.1338 43.9204 30.7155 45.5282 30.3308C45.8032 30.265 45.7587 30.158 45.8552 30.245C45.9922 30.368 45.8552 30.6674 45.5797 30.7564Z" fill="#FFDE59"/>
<path d="M12.1322 31.1098C11.4242 30.6566 11.2192 30.6906 11.212 30.5555C11.203 30.3816 11.1085 30.2993 10.9417 30.2433C10.7882 30.192 11.0457 30.1521 10.8737 29.8086C10.811 29.6836 10.6485 29.6912 10.699 29.6138C10.8447 29.3902 11.059 28.8743 11.1492 28.6194C11.4122 27.8767 11.5042 27.9302 10.3797 27.7181C10.3272 27.708 10.332 27.693 10.305 27.5697C10.1062 26.669 9.20871 26.5215 8.72371 26.9624C8.54321 27.1264 8.53846 27.2233 8.47371 27.1801C8.27846 27.0507 7.94746 27.0001 7.64596 27.1387C7.28596 27.3044 7.16496 27.5682 7.04921 27.7909C6.74971 27.6632 6.82146 27.7065 6.74121 27.6873C6.35771 27.5944 5.85721 27.8059 5.64621 28.396C5.60146 28.5212 5.60221 28.4808 5.46296 28.5227C5.17096 28.611 4.76846 28.9029 4.90696 29.1737C5.46096 30.2561 5.92196 30.3979 5.65671 30.5459C5.41321 30.6817 5.43046 30.9744 5.58246 31.2062C5.65646 31.3191 5.51871 31.3068 5.50271 31.5282C5.47671 31.8932 5.59621 31.853 5.49571 31.9765C3.01246 35.033 3.53996 38.1742 4.76196 39.3913C5.82071 40.4459 6.47271 40.8101 8.38021 40.8101C8.38121 40.832 10.6645 40.7967 11.9332 40.181C12.229 40.0375 12.4727 39.9051 12.68 39.7781C12.2637 38.602 12.148 36.1769 12.1322 31.1098ZM8.72446 27.3579C9.03546 26.8788 9.66146 26.9399 9.88746 27.3416C9.94371 27.4417 10.0712 27.6747 9.95596 27.6873C9.87996 27.6957 9.91821 27.6678 9.26396 27.7623C8.94596 27.8081 8.92471 27.8821 8.88496 27.7702C8.74521 27.3789 8.68471 27.4193 8.72471 27.3581L8.72446 27.3579ZM7.27421 27.9349C7.68996 27.0366 8.49521 27.3012 8.59271 27.8727C8.61446 28.0005 8.62271 27.9147 8.16046 28.1886C8.01771 28.2732 7.62146 28.5279 7.61621 28.5321C7.53796 28.592 7.54621 28.4552 7.43721 28.2456C7.31846 28.0177 7.24346 28.0015 7.27421 27.9349ZM7.28596 28.6492C7.29921 28.7094 7.35121 28.7271 7.28646 28.7727C6.94921 29.0102 6.65146 29.1959 6.17521 29.1902C6.04246 29.1887 5.78871 29.1823 5.79246 29.0504C5.83246 27.6185 7.07846 27.7036 7.28621 28.6492H7.28596ZM5.87096 30.6881C6.13971 30.86 6.97121 30.934 7.29096 30.9128C7.74021 30.8832 8.34446 30.8585 9.33571 30.5121C9.64421 30.4043 10.2235 30.1365 10.4737 29.871C10.5242 29.8175 10.5447 29.8574 10.596 29.9102C11.2057 30.5417 7.97771 31.7095 6.08771 31.2227C5.59546 31.096 5.66721 30.5577 5.87096 30.6881ZM10.2882 38.2506C10.1285 38.3751 10.316 38.725 10.3912 38.9408C10.5135 39.2911 9.96271 39.4827 9.82946 39.1435C9.55346 38.4407 9.98546 38.6192 9.19321 38.8032C8.79871 38.8947 8.01021 38.7884 7.84971 38.4276C7.65121 37.9808 8.72896 38.1976 9.07271 38.1355C10.3092 37.9113 10.578 36.9036 9.81671 36.7068C9.17896 36.5418 8.07146 36.8653 7.56321 36.1019C7.41771 35.8835 7.31796 35.4416 7.45371 35.021C7.63021 34.4748 8.06746 34.2509 8.22571 34.1478C8.32121 34.0857 8.29821 34.1325 8.08771 33.5058C7.98746 33.2074 8.44696 33.0121 8.58421 33.2873C8.67746 33.4749 8.65371 33.4853 8.80771 33.868C8.87996 33.8534 8.95171 33.8372 9.02371 33.8241C10.4677 33.561 10.4612 34.7914 9.96096 34.604C9.81446 34.549 9.57271 34.2583 9.04346 34.4055C8.41846 34.5793 7.83571 34.9721 7.94746 35.6063C8.07671 36.3396 9.53771 35.6985 10.4027 36.2815C11.1445 36.7813 10.962 37.7256 10.2882 38.2506ZM10.9302 30.7022C10.865 30.9515 10.5617 31.1736 10.3327 31.3014C9.32396 31.8645 8.60746 31.9585 7.45521 32.0865C7.39846 32.0926 7.33996 32.0875 7.28271 32.0875L7.28221 32.0912C6.35671 32.0507 6.22271 32.0714 5.82771 31.8041C5.69321 31.7132 5.72796 31.3729 5.82496 31.4301C6.54921 31.8557 8.30471 31.5112 8.61371 31.4651C8.92271 31.419 9.34271 31.3179 10.0215 30.9719C10.7432 30.6038 10.749 30.2998 10.8165 30.4105C10.9615 30.6482 10.9465 30.6398 10.9302 30.7022Z" fill="#FFDE59"/>
<path d="M39.1067 36.8968C38.9342 38.7382 39.0782 39.8288 38.0659 40.4591C37.8927 40.5668 37.5147 40.6566 37.4957 40.7069C37.4347 40.8672 37.0964 41.3004 37.0539 41.3532C36.8902 41.5566 36.7959 41.5176 36.0977 41.5674C36.0914 41.5674 34.8434 41.6298 34.2354 41.545C33.8154 41.4863 33.9104 40.9152 33.7017 40.9165C33.5042 40.9177 29.6009 40.9907 29.5939 40.9909C29.4744 40.9919 29.3687 41.3339 28.9584 41.5958C28.6127 41.8162 28.5862 41.7879 26.5062 41.778C25.3837 41.7726 25.4417 41.7127 25.1957 41.1266C25.1489 41.0151 25.2014 41.057 24.3657 41.0511C24.2244 41.0501 23.8857 41.6293 23.5149 41.6498C21.3049 41.7713 21.1524 41.6855 21.0219 41.4493C20.8549 41.1473 20.8817 41.0979 20.7597 41.0989C19.1109 41.1125 19.1432 41.0496 19.0524 41.1968C18.8682 41.4959 18.5752 41.794 18.2204 41.7812C16.1304 41.7058 15.2234 41.8902 15.0792 41.421C14.9239 40.9162 14.9384 40.948 14.8594 40.9438C12.2024 40.8058 12.0792 41.0659 12.1407 25.449C12.1574 21.1692 12.5734 17.2696 12.5872 17.1853C12.8619 15.5093 13.3644 15.3895 14.4339 15.2554C19.6684 14.5995 30.7364 14.9541 36.0082 15.1809C37.9074 15.2628 38.8749 15.426 39.0327 17.349C39.6212 24.5246 39.5159 32.5255 39.1064 36.897L39.1067 36.8968ZM22.0789 15.1996C22.0789 15.2137 15.9179 15.2652 14.0042 15.6245C13.0079 15.8114 12.8519 16.1911 12.6709 20.5772C12.3077 29.3767 12.5687 36.7728 12.7772 38.465C13.0679 40.825 13.1122 40.5609 16.4262 40.6788C20.1162 40.8102 30.7524 40.8489 31.8012 40.443C32.8717 40.0288 32.8254 39.5433 32.9024 38.8378C33.3499 34.7356 33.5554 25.3369 33.1579 19.2701C32.9004 15.3412 33.9217 15.1996 22.0789 15.1996ZM38.6572 38.4266C39.5384 29.2175 38.7617 17.9894 38.8399 18.7895C38.6354 16.6941 38.8669 15.735 36.9629 15.5382C35.4364 15.3804 31.7214 15.3076 31.6822 15.3644C33.3914 15.911 33.3254 16.4473 33.5002 18.4808C34.2259 26.9268 33.4532 38.0032 33.1632 39.3177C32.8599 40.6918 31.8064 40.6573 32.1744 40.659C38.1052 40.683 38.4534 40.5575 38.6574 38.4263L38.6572 38.4266Z" fill="black"/>
<path d="M30.4332 17.1739C31.4852 17.495 30.9967 18.6462 31.2557 22.4593C31.3337 23.6063 31.3787 31.8898 30.985 37.4387C30.8575 39.2345 29.932 38.6262 27.567 38.8785C27.454 38.8906 19.7752 39.0407 16.8005 38.8716C14.3877 38.7345 14.211 38.9475 14.129 36.7925C14.0192 33.9058 13.7562 18.6628 14.4747 17.5159C14.8645 16.8938 15.8867 17.1927 18.2422 16.9256C18.999 16.8398 29.2747 16.8203 30.4332 17.1739ZM30.7305 17.7075C30.5735 17.0733 27.9045 17.3436 25.2952 17.1991C23.9932 17.1268 16.2137 17.1357 14.9492 17.4506C14.5665 17.546 14.6435 17.8722 14.5755 18.4157C14.4562 19.3689 13.8655 38.1839 14.8362 38.4292C16.3262 38.8057 29.8602 38.6679 30.3895 38.3565C31.1397 37.9149 31.0262 18.9027 30.7305 17.7075Z" fill="black"/>
<path d="M17.128 34H14.728V20.8H23.728C24.64 20.8 25.488 20.976 26.272 21.328C27.072 21.664 27.768 22.136 28.36 22.744C28.968 23.352 29.44 24.056 29.776 24.856C30.112 25.64 30.28 26.488 30.28 27.4V34H27.88V27.4C27.88 26.632 27.696 25.936 27.328 25.312C26.96 24.672 26.456 24.16 25.816 23.776C25.192 23.392 24.496 23.2 23.728 23.2H17.128V34Z" fill="#8900FE"/>
</svg>
